<svg width="48" height="48" viewBox="0 0 48 48" fill="none" xmlns="http://www.w3.org/2000/svg">
<foreignObject x="-4" y="-4" width="56" height="56"><div xmlns="http://www.w3.org/1999/xhtml" style="backdrop-filter:blur(2px);clip-path:url(#bgblur_0_1_39_clip_path);height:100%;width:100%"></div></foreignObject><g data-figma-bg-blur-radius="4">
<rect width="48" height="48" rx="24" fill="white" fill-opacity="0.2"/>
<path d="M13.5 33.9167C12.8584 33.9167 12.309 33.6882 11.8521 33.2312C11.3952 32.7743 11.1667 32.225 11.1667 31.5833C11.1667 30.9417 11.3952 30.3924 11.8521 29.9354C12.309 29.4785 12.8584 29.25 13.5 29.25C13.6167 29.25 13.7188 29.25 13.8063 29.25C13.8938 29.25 13.9861 29.2694 14.0834 29.3083L19.3917 24C19.3528 23.9028 19.3334 23.8104 19.3334 23.7229C19.3334 23.6354 19.3334 23.5333 19.3334 23.4167C19.3334 22.775 19.5618 22.2257 20.0188 21.7687C20.4757 21.3118 21.025 21.0833 21.6667 21.0833C22.3084 21.0833 22.8577 21.3118 23.3146 21.7687C23.7715 22.2257 24 22.775 24 23.4167C24 23.4556 23.9806 23.65 23.9417 24L26.9167 26.975C27.0139 26.9361 27.1063 26.9167 27.1938 26.9167C27.2813 26.9167 27.3834 26.9167 27.5 26.9167C27.6167 26.9167 27.7188 26.9167 27.8063 26.9167C27.8938 26.9167 27.9861 26.9361 28.0834 26.975L32.225 22.8333C32.1861 22.7361 32.1667 22.6437 32.1667 22.5562C32.1667 22.4687 32.1667 22.3667 32.1667 22.25C32.1667 21.6083 32.3952 21.059 32.8521 20.6021C33.309 20.1451 33.8584 19.9167 34.5 19.9167C35.1417 19.9167 35.691 20.1451 36.1479 20.6021C36.6049 21.059 36.8334 21.6083 36.8334 22.25C36.8334 22.8917 36.6049 23.441 36.1479 23.8979C35.691 24.3549 35.1417 24.5833 34.5 24.5833C34.3834 24.5833 34.2813 24.5833 34.1938 24.5833C34.1063 24.5833 34.0139 24.5639 33.9167 24.525L29.775 28.6667C29.8139 28.7639 29.8334 28.8562 29.8334 28.9437C29.8334 29.0312 29.8334 29.1333 29.8334 29.25C29.8334 29.8917 29.6049 30.441 29.1479 30.8979C28.691 31.3549 28.1417 31.5833 27.5 31.5833C26.8584 31.5833 26.309 31.3549 25.8521 30.8979C25.3952 30.441 25.1667 29.8917 25.1667 29.25C25.1667 29.1333 25.1667 29.0312 25.1667 28.9437C25.1667 28.8562 25.1861 28.7639 25.225 28.6667L22.25 25.6917C22.1528 25.7306 22.0604 25.75 21.9729 25.75C21.8854 25.75 21.7834 25.75 21.6667 25.75C21.6278 25.75 21.4334 25.7306 21.0834 25.6917L15.775 31C15.8139 31.0972 15.8334 31.1896 15.8334 31.2771C15.8334 31.3646 15.8334 31.4667 15.8334 31.5833C15.8334 32.225 15.6049 32.7743 15.1479 33.2312C14.691 33.6882 14.1417 33.9167 13.5 33.9167ZM14.6667 22.2208L13.9375 20.6458L12.3625 19.9167L13.9375 19.1875L14.6667 17.6125L15.3959 19.1875L16.9709 19.9167L15.3959 20.6458L14.6667 22.2208ZM27.5 21.0833L26.3917 18.6917L24 17.5833L26.3917 16.475L27.5 14.0833L28.6084 16.475L31 17.5833L28.6084 18.6917L27.5 21.0833Z" fill="white"/>
</g>
<defs>
<clipPath id="bgblur_0_1_39_clip_path" transform="translate(4 4)"><rect width="48" height="48" rx="24"/>
</clipPath></defs>
</svg>
